:FULLY-SPECIFIED
:FORCE-ALL-JOINTS-BE-3DOF
:DEGREES
17
root 7.78813 15.8671 -34.3548 7.28801 -2.6757 -4.75048
lfemur -41.9184 7.41225 -15.0105
ltibia 40.7319 -0 0
lfoot -8.57244 7.84818 -0.0411902
ltoes -8.71678 0 0
rfemur 3.31198 5.06436 29.0181
rtibia 14.7072 -0 0
rfoot -0.981218 0.373039 -0.00499133
rtoes -11.1807 0 0
lowerback -6.01113 0.58286 1.58546
upperback -1.40382 0.596154 3.13612
thorax 1.9078 0.305504 2.41233
lowerneck -19.6449 -4.98861 -13.0044
upperneck 14.5276 -6.27902 16.0536
head 8.74284 -2.13063 6.87795
lclavicle -3.14018e-14 -4.8901e-14 0
lhumerus -39.1063 -4.6436 88.3525
lradius 25.75 -0 0
lwrist 4.36831 0 0
lhand -5.49262 -20.8366 0.233518
lfingers 7.12502 -0 0
lthumb 20.2942 7.82294 0.128814
rclavicle -3.14018e-14 -4.8901e-14 0
rhumerus -41.4531 18.5182 -87.86
rradius 56.1616 -0 0
rwrist -27.8836 0 0
rhand -32.2836 -29.1822 -0.042974
rfingers 7.12502 -0 0
rthumb -5.52248 -59.0873 -0.0417579
18
root 7.80827 15.8592 -34.2062 7.30143 -2.925 -4.81865
lfemur -41.9945 7.47505 -14.9273
ltibia 40.5333 -0 0
lfoot -8.19455 7.81692 -0.0420152
ltoes -8.52104 0 0
rfemur 4.13762 5.09368 28.9528
rtibia 14.1189 -0 0
rfoot -1.04255 0.396356 -0.00509116
rtoes -11.8795 0 0
lowerback -6.11799 0.60809 1.62545
upperback -1.39649 0.6218 3.17234
thorax 1.97426 0.318408 2.43154
lowerneck -19.7066 -4.97682 -12.9837
upperneck 14.5804 -6.2566 15.9994
head 8.76487 -2.12112 6.85971
lclavicle -3.14018e-14 -4.8901e-14 0
lhumerus -39.3073 -4.74376 88.4868
lradius 25.6465 -0 0
lwrist 4.18473 0 0
lhand -5.00442 -20.6992 0.238201
lfingers 7.12502 -0 0
lthumb 20.7624 7.90191 0.131396
rclavicle -3.14018e-14 -4.8901e-14 0
rhumerus -41.6238 18.579 -88.0972
rradius 56.1592 -0 0
rwrist -27.8407 0 0
rhand -32.2262 -29.3967 -0.043834
rfingers 7.12502 -0 0
rthumb -5.46703 -59.3032 -0.0425935
19
root 7.82841 15.8512 -34.0576 7.31516 -3.17427 -4.88689
lfemur -42.0705 7.53796 -14.8441
ltibia 40.3346 -0 0
lfoot -7.81666 7.78565 -0.042634
ltoes -8.32529 0 0
rfemur 4.96326 5.12394 28.8879
rtibia 13.5306 -0 0
rfoot -1.10387 0.419673 -0.00516604
rtoes -12.5783 0 0
lowerback -6.22482 0.633393 1.66539
upperback -1.38915 0.647442 3.20857
thorax 2.04072 0.331289 2.45077
lowerneck -19.7682 -4.96501 -12.963
upperneck 14.6332 -6.23412 15.9452
head 8.7869 -2.1116 6.84147
lclavicle -3.14018e-14 -4.8901e-14 0
lhumerus -39.5085 -4.84345 88.6215
lradius 25.543 -0 0
lwrist 4.00115 0 0
lhand -4.5162 -20.5619 0.241713
lfingers 7.12502 -0 0
lthumb 21.2307 7.98089 0.133333
rclavicle -3.14018e-14 -4.8901e-14 0
rhumerus -41.7948 18.6392 -88.3347
rradius 56.1569 -0 0
rwrist -27.7978 0 0
rhand -32.1687 -29.6111 -0.0444789
rfingers 7.12502 -0 0
rthumb -5.41157 -59.519 -0.0432202
20
root 7.84854 15.8433 -33.909 7.32918 -3.42353 -4.95521
lfemur -42.1464 7.60097 -14.7611
ltibia 40.1359 -0 0
lfoot -7.43876 7.75437 -0.0430465
ltoes -8.12955 0 0
rfemur 5.78891 5.15513 28.8235
rtibia 12.9423 -0 0
rfoot -1.1652 0.44299 -0.00521595
rtoes -13.2771 0 0
lowerback -6.33165 0.658772 1.70528
upperback -1.38179 0.673079 3.2448
thorax 2.10718 0.344148 2.47
lowerneck -19.8298 -4.95318 -12.9423
upperneck 14.686 -6.21159 15.8911
head 8.80892 -2.10207 6.82324
lclavicle -3.14018e-14 -4.8901e-14 0
lhumerus -39.71 -4.94267 88.7566
lradius 25.4396 -0 0
lwrist 3.81757 0 0
lhand -4.02797 -20.4245 0.244055
lfingers 7.12502 -0 0
lthumb 21.6989 8.0599 0.134624
rclavicle -3.14018e-14 -4.8901e-14 0
rhumerus -41.9661 18.6987 -88.5725
rradius 56.1546 -0 0
rwrist -27.755 0 0
rhand -32.1113 -29.8256 -0.0449089
rfingers 7.12502 -0 0
rthumb -5.35612 -59.7348 -0.043638
21
root 7.86868 15.8354 -33.7604 7.34351 -3.67278 -5.02361
lfemur -42.2223 7.6641 -14.6781
ltibia 39.9373 -0 0
lfoot -7.06087 7.7231 -0.0432528
ltoes -7.9338 0 0
rfemur 6.61456 5.18723 28.7595
rtibia 12.354 -0 0
rfoot -1.22653 0.466307 -0.00524091
rtoes -13.9759 0 0
lowerback -6.43845 0.684225 1.74513
upperback -1.37441 0.698712 3.28103
thorax 2.17365 0.356985 2.48926
lowerneck -19.8915 -4.94133 -12.9216
upperneck 14.7387 -6.18902 15.837
head 8.83094 -2.09253 6.80501
lclavicle -3.14018e-14 -4.8901e-14 0
lhumerus -39.9118 -5.04141 88.892
lradius 25.3361 -0 0
lwrist 3.63399 0 0
lhand -3.53975 -20.2871 0.245226
lfingers 7.12502 -0 0
lthumb 22.1671 8.1389 0.13527
rclavicle -3.14018e-14 -4.8901e-14 0
rhumerus -42.1378 18.7575 -88.8106
rradius 56.1522 -0 0
rwrist -27.7121 0 0
rhand -32.0539 -30.04 -0.0451239
rfingers 7.12502 -0 0
rthumb -5.30066 -59.9506 -0.0438469
22
root 7.88882 15.8275 -33.6119 7.35814 -3.922 -5.09209
lfemur -42.2981 7.72733 -14.5952
ltibia 39.7386 -0 0
lfoot -6.68297 7.69182 -0.0432528
ltoes -7.73806 0 0
rfemur 7.44022 5.22026 28.696
rtibia 11.7658 -0 0
rfoot -1.28785 0.489625 -0.00524091
rtoes -14.6746 0 0
lowerback -6.54524 0.709752 1.78492
upperback -1.36702 0.72434 3.31727
thorax 2.24013 0.369799 2.50853
lowerneck -19.9531 -4.92946 -12.9009
upperneck 14.7914 -6.16639 15.7829
head 8.85296 -2.08299 6.78679
lclavicle -3.14018e-14 -4.8901e-14 0
lhumerus -40.1138 -5.13968 89.0279
lradius 25.2326 -0 0
lwrist 3.45041 0 0
lhand -3.05151 -20.1496 0.245226
lfingers 7.12502 -0 0
lthumb 22.6354 8.21792 0.13527
rclavicle -3.14018e-14 -4.8901e-14 0
rhumerus -42.3097 18.8157 -89.0489
rradius 56.1499 -0 0
rwrist -27.6692 0 0
rhand -31.9964 -30.2545 -0.0451239
rfingers 7.12502 -0 0
rthumb -5.2452 -60.1665 -0.0438469
23
root 7.90896 15.8196 -33.4633 7.37308 -4.17121 -5.16066
lfemur -42.3737 7.79067 -14.5123
ltibia 39.54 -0 0
lfoot -6.30508 7.66055 -0.0430465
ltoes -7.54231 0 0
rfemur 8.26589 5.25419 28.633
rtibia 11.1775 -0 0
rfoot -1.34918 0.512942 -0.00521595
rtoes -15.3734 0 0
lowerback -6.65201 0.735353 1.82467
upperback -1.35961 0.749963 3.35351
thorax 2.30661 0.382591 2.52781
lowerneck -20.0147 -4.91756 -12.8803
upperneck 14.8441 -6.14372 15.7288
head 8.87497 -2.07344 6.76857
lclavicle -3.14018e-14 -4.8901e-14 0
lhumerus -40.3161 -5.23747 89.164
lradius 25.1291 -0 0
lwrist 3.26684 0 0
lhand -2.56329 -20.0122 0.244055
lfingers 7.12502 -0 0
lthumb 23.1036 8.29692 0.134624
rclavicle -3.14018e-14 -4.8901e-14 0
rhumerus -42.482 18.8731 -89.2875
rradius 56.1475 -0 0
rwrist -27.6263 0 0
rhand -31.939 -30.4689 -0.0449089
rfingers 7.12502 -0 0
rthumb -5.18974 -60.3823 -0.043638
24
root 7.92909 15.8117 -33.3147 7.38831 -4.4204 -5.22931
lfemur -42.4494 7.85412 -14.4296
ltibia 39.3413 -0 0
lfoot -5.92718 7.62927 -0.042634
ltoes -7.34657 0 0
rfemur 9.09156 5.28902 28.5704
rtibia 10.5892 -0 0
rfoot -1.41051 0.536259 -0.00516604
rtoes -16.0722 0 0
lowerback -6.75876 0.761028 1.86438
upperback -1.35218 0.775581 3.38975
thorax 2.37309 0.39536 2.54711
lowerneck -20.0763 -4.90564 -12.8597
upperneck 14.8967 -6.121 15.6748
head 8.89698 -2.06388 6.75035
lclavicle -3.14018e-14 -4.8901e-14 0
lhumerus -40.5187 -5.33478 89.3006
lradius 25.0257 -0 0
lwrist 3.08326 0 0
lhand -2.07506 -19.8748 0.241713
lfingers 7.12502 -0 0
lthumb 23.5718 8.37593 0.133333
rclavicle -3.14018e-14 -4.8901e-14 0
rhumerus -42.6546 18.9299 -89.5264
rradius 56.1452 -0 0
rwrist -27.5835 0 0
rhand -31.8816 -30.6834 -0.0444789
rfingers 7.12502 -0 0
rthumb -5.13429 -60.5981 -0.0432202
25
root 7.94923 15.8037 -33.1661 7.40385 -4.66957 -5.29806
lfemur -42.5249 7.91768 -14.3469
ltibia 39.1426 -0 0
lfoot -5.54929 7.598 -0.0420152
ltoes -7.15082 0 0
rfemur 9.91725 5.32474 28.5084
rtibia 10.0009 -0 0
rfoot -1.47183 0.559576 -0.00509116
rtoes -16.771 0 0
lowerback -6.8655 0.786777 1.90403
upperback -1.34474 0.801195 3.426
thorax 2.43958 0.408107 2.56642
lowerneck -20.1379 -4.8937 -12.839
upperneck 14.9493 -6.09822 15.6207
head 8.91899 -2.05432 6.73214
lclavicle -3.14018e-14 -4.8901e-14 0
lhumerus -40.7215 -5.43161 89.4375
lradius 24.9222 -0 0
lwrist 2.89968 0 0
lhand -1.58684 -19.7375 0.238201
lfingers 7.12502 -0 0
lthumb 24.0401 8.45491 0.131396
rclavicle -3.14018e-14 -4.8901e-14 0
rhumerus -42.8275 18.986 -89.7655
rradius 56.1429 -0 0
rwrist -27.5406 0 0
rhand -31.8241 -30.8978 -0.043834
rfingers 7.12502 -0 0
rthumb -5.07883 -60.8139 -0.0425935
26
root 7.96937 15.7958 -33.0175 7.4197 -4.91872 -5.36689
lfemur -42.6004 7.98134 -14.2642
ltibia 38.944 -0 0
lfoot -5.17139 7.56674 -0.0411902
ltoes -6.95508 0 0
rfemur 10.7429 5.36135 28.4469
rtibia 9.41261 -0 0
rfoot -1.53316 0.582893 -0.00499133
rtoes -17.4698 0 0
lowerback -6.97221 0.812599 1.94364
upperback -1.33728 0.826804 3.46225
thorax 2.50607 0.420832 2.58575
lowerneck -20.1995 -4.88174 -12.8184
upperneck 15.002 -6.0754 15.5667
head 8.941 -2.04475 6.71393
lclavicle -3.14018e-14 -4.8901e-14 0
lhumerus -40.9246 -5.52795 89.5748
lradius 24.8187 -0 0
lwrist 2.7161 0 0
lhand -1.09864 -19.6001 0.233518
lfingers 7.12502 -0 0
lthumb 24.5083 8.53388 0.128814
rclavicle -3.14018e-14 -4.8901e-14 0
rhumerus -43.0007 19.0414 -90.0049
rradius 56.1405 -0 0
rwrist -27.4977 0 0
rhand -31.7667 -31.1123 -0.042974
rfingers 7.12502 -0 0
rthumb -5.02338 -61.0298 -0.0417579
27
root 7.98951 15.7879 -32.8689 7.43586 -5.16786 -5.43583
lfemur -42.6757 8.04512 -14.1817
ltibia 38.7453 -0 0
lfoot -4.7935 7.53548 -0.0401589
ltoes -6.75933 0 0
rfemur 11.5686 5.39884 28.3859
rtibia 8.82432 -0 0
rfoot -1.59449 0.60621 -0.00486654
rtoes -18.1686 0 0
lowerback -7.07892 0.838496 1.9832
upperback -1.32981 0.852409 3.4985
thorax 2.57257 0.433534 2.60509
lowerneck -20.2611 -4.86976 -12.7978
upperneck 15.0545 -6.05253 15.5128
head 8.963 -2.03517 6.69573
lclavicle -3.14018e-14 -4.8901e-14 0
lhumerus -41.1279 -5.62381 89.7124
lradius 24.7152 -0 0
lwrist 2.53252 0 0
lhand -0.610443 -19.4628 0.227665
lfingers 7.12502 -0 0
lthumb 24.9765 8.61283 0.125586
rclavicle -3.14018e-14 -4.8901e-14 0
rhumerus -43.1742 19.0962 -90.2445
rradius 56.1382 -0 0
rwrist -27.4548 0 0
rhand -31.7093 -31.3267 -0.0418992
rfingers 7.12502 -0 0
rthumb -4.96793 -61.2456 -0.0407135
